<svg width="512" height="512" viewBox="0 0 512 512" fill="none" xmlns="http://www.w3.org/2000/svg">
  <rect width="512" height="512" fill="#7E88C8"/>

  <path d="M70 140V410H140V280L210 410H280V140H210V270L140 140H70Z" fill="white"/>
  <path d="M360 140L280 410H440L360 140Z" fill="white"/>

  <circle cx="105" cy="370" r="40" fill="white"/>
  <path d="M160 370C160 347.909 177.909 330 200 330H240V370C240 392.091 222.091 410 200 410C177.909 410 160 392.091 160 370Z" fill="white"/>
  <path d="M260 370C260 347.909 277.909 330 300 330C322.091 330 340 347.909 340 370V410H300C277.909 410 260 392.091 260 370Z" fill="white"/>
  <rect x="360" y="330" width="35" height="80" fill="white"/>
  <path d="M410 370C410 347.909 427.909 330 450 330H470V410H450C427.909 410 410 392.091 410 370Z" fill="white"/>
</svg>